<?xml version="1.0" standalone="no"?><!DOCTYPE svg PUBLIC "-//W3C//DTD SVG 1.1//EN" "http://www.w3.org/Graphics/SVG/1.1/DTD/svg11.dtd"><svg class="icon" width="200px" height="200.00px" viewBox="0 0 1024 1024" version="1.1" xmlns="http://www.w3.org/2000/svg"><path fill="#1296db" d="M807.864322 722.998518s-18.541449-30.621852-60.282818-20.319696-52.4741 54.375194-52.4741 54.375194-4.579412 11.877279-11.018564 15.167402c-6.439152 3.292555-5.866269 18.174123 5.00877 18.174122s32.625117 6.439152 38.063244 8.4412c0 0 86.427429 18.317647 88.430694-32.910949 0-16.884833-0.429358-27.044681-6.295628-28.18923-5.866269-1.143333-32.05345 2.909417-64.678567 20.081299-9.157607 6.486588-26.996028 11.066-22.416616 2.956852s38.44395-18.220343 73.740086-24.897891c0 0 17.743549-1.33551 11.923499-12.878303zM746.006381 644.16452m-16.242621 0a16.24262 16.24262 0 1 0 32.485241 0 16.24262 16.24262 0 1 0-32.485241 0ZM669.16835 622.59324l71.897375 26.201777a4.653607 4.653607 0 0 0 5.967223-2.778055l0.951155-2.61142a4.653607 4.653607 0 0 0-2.779271-5.966007l-71.896158-26.202993a4.653607 4.653607 0 0 0-5.967223 2.779271l-0.951156 2.610204a4.653607 4.653607 0 0 0 2.778055 5.966007zM582.24345 241.520492m-99.085579 0a99.08558 99.08558 0 1 0 198.171159 0 99.08558 99.08558 0 1 0-198.171159 0ZM321.44929 730.89481C269.786469 707.492982 246.874814 646.639714 270.277859 594.97446l82.804037-182.799417c23.403045-51.665253 84.256313-74.575692 135.92035-51.172647 51.665253 23.403045 74.575692 84.256313 51.172647 135.921566l-82.804037 182.799418c-23.403045 51.664037-84.256313 74.574475-135.921566 51.17143zM660.777019 644.400484c-25.031686 20.824465-62.205806 17.413928-83.030271-7.617757L431.170295 460.592745c-20.823249-25.031686-17.412712-62.205806 7.618974-83.030272 25.031686-20.824465 62.20459-17.413928 83.029055 7.617758l146.577669 176.189982c20.823249 25.031686 17.412712 62.205806-7.618974 83.030271zM603.81473 822.380877c-16.280326 28.19896-52.337873 37.861337-80.536833 21.579794L305.128825 718.012858c-28.19896-16.280326-37.86012-52.337873-21.579794-80.536833 16.280326-28.19896 52.337873-37.861337 80.53805-21.581011l218.147855 125.94903c28.19896 16.280326 37.86012 52.337873 21.579794 80.536833zM613.552518 793.251439c0 32.560652-26.39517 58.958255-58.957039 58.958255H302.699852c-32.560652 0-58.957039-26.396387-58.957039-58.958255 0-32.560652 26.396387-58.957039 58.957039-58.957039h251.895627c32.561869 0 58.958255 26.396387 58.958256 58.957039z" /></svg>