<?xml version="1.0" standalone="no"?><!DOCTYPE svg PUBLIC "-//W3C//DTD SVG 1.1//EN" "http://www.w3.org/Graphics/SVG/1.1/DTD/svg11.dtd"><svg class="icon" width="200px" height="200.00px" viewBox="0 0 1024 1024" version="1.1" xmlns="http://www.w3.org/2000/svg"><path fill="#1296db" d="M802.133333 426.666667h-4.266666v-98.133334C797.866667 170.666667 669.866667 42.666667 512 42.666667c-76.8 0-149.333333 29.866667-202.666667 83.2s-83.2 125.866667-83.2 202.666666V426.666667h-4.266666C170.666667 426.666667 128 469.333333 128 520.533333v366.933334C128 938.666667 170.666667 981.333333 221.866667 981.333333h580.266666c51.2 0 93.866667-42.666667 93.866667-93.866666V520.533333c0-51.2-42.666667-93.866667-93.866667-93.866666z m-490.666666-98.133334c0-53.333333 21.333333-104.533333 59.733333-142.933333C407.466667 149.333333 458.666667 128 512 128c110.933333 0 200.533333 89.6 200.533333 200.533333V426.666667H311.466667v-98.133334z"  /></svg>