<?xml version="1.0" standalone="no"?><!DOCTYPE svg PUBLIC "-//W3C//DTD SVG 1.1//EN" "http://www.w3.org/Graphics/SVG/1.1/DTD/svg11.dtd"><svg class="icon" width="200px" height="199.80px" viewBox="0 0 1025 1024" version="1.1" xmlns="http://www.w3.org/2000/svg"><path fill="#1296db" d="M453.971 224.853c28.666-29.155 60.731-53.959 95.056-73.71 103.022-59.231 227.184-75.309 341.801-44.53 11.83 3.197 20.702 12.837 22.964 24.332 30.479 115.257 14.553 240.176-44.341 343.487-19.327 34.444-43.895 67.055-73.004 96.445-72.98 73.686-169.179 119.841-271.289 131.338l-54.794 206.41c-4.798 17.446-22.306 27.557-39.121 22.948-11.361-2.986-19.794-11.709-22.751-22.031l-75.495-216.99-216.263-76.46c-16.37-5.95-25.242-24.1-19.327-41.1 3.399-10.557 11.833-17.891 21.819-20.667l204.457-55.088c11.363-103.571 57.077-200.674 130.288-274.383zM804.411 457.902c-21.377-6.442-42.288-14.694-62.082-25.251-31.598-16.53-60.473-38.113-86.859-64.516-44.533-44.967-77.195-101.77-92.845-165.27 18.258 56.644 10.060 35.057 3.703 13.477-23.891 15.167-46.62 33.529-67.323 54.194-66.854 67.973-107.327 158.657-112.799 253.951-0.676 14.223-9.989 27.083-24.101 30.989l-126.446 34.209 133.037 47.306c8.873 2.749 16.37 10.11 19.793 19.75l46.852 134.557 33.649-127.67c3.399-13.31 14.997-23.419 28.875-24.098 95.733-5.291 186.014-46.389 253.335-114.127 20.468-20.668 38.213-43.616 53.211-67.503zM759.841 397.737c20.702 11.027 42.521 19.514 64.364 25.275 39.332-79.447 50.485-171.519 31.835-258.324-85.953-18.598-176.701-7.571-255.153 31.93 5.916 22.497 13.879 44.53 24.778 65.668 14.346 28.002 33.44 54.637 57.1 78.292 23.193 23.654 49.577 42.934 77.077 57.159zM738.231 236.327c5.963-6.064 14.256-9.823 23.427-9.823s17.462 3.758 23.422 9.818c12.977 13.101 12.977 34.213 0.004 47.545-12.972 12.834-33.883 12.834-46.853 0-12.714-13.331-12.714-34.444 0-47.54z"  /></svg>