<?xml version="1.0" standalone="no"?><!DOCTYPE svg PUBLIC "-//W3C//DTD SVG 1.1//EN" "http://www.w3.org/Graphics/SVG/1.1/DTD/svg11.dtd"><svg class="icon" width="200px" height="200.00px" viewBox="0 0 1024 1024" version="1.1" xmlns="http://www.w3.org/2000/svg"><path d="M292.266667 471.466667c-36.266667 0-66.133333 29.866667-66.133334 66.133333 0 36.266667 29.866667 66.133333 66.133334 66.133333s66.133333-29.866667 66.133333-66.133333c0-36.266667-29.866667-66.133333-66.133333-66.133333zM360.533333 298.666667c-36.266667 0-66.133333 29.866667-66.133333 66.133333s29.866667 66.133333 66.133333 66.133333 66.133333-29.866667 66.133334-66.133333-29.866667-66.133333-66.133334-66.133333zM672 337.066667c-36.266667 0-66.133333 29.866667-66.133333 66.133333s29.866667 66.133333 66.133333 66.133333 66.133333-29.866667 66.133333-66.133333-29.866667-66.133333-66.133333-66.133333z" fill="#297AFF" /><path d="M499.2 113.066667C279.466667 113.066667 100.266667 292.266667 100.266667 512s179.2 401.066667 401.066666 401.066667c36.266667 0 64-27.733333 70.4-74.666667v-4.266667-14.933333c0-10.666667-4.266667-23.466667-12.8-40.533333l-17.066666-32-12.8-27.733334c-4.266667-10.666667-2.133333-12.8 0-12.8 10.666667-6.4 25.6-8.533333 49.066666-6.4h4.266667c2.133333 0 6.4 0 8.533333 2.133334l74.666667 14.933333 49.066667 10.666667c38.4 6.4 66.133333 6.4 87.466666 0 36.266667-8.533333 64-40.533333 81.066667-93.866667l2.133333-4.266667c0-2.133333 2.133333-6.4 2.133334-8.533333l4.266666-17.066667 8.533334-89.6c0-221.866667-179.2-401.066667-401.066667-401.066666z m275.2 524.8h-8.533333l-108.8-19.2-72.533334-12.8c-46.933333-4.266667-81.066667 4.266667-108.8 23.466666-34.133333 23.466667-49.066667 66.133333-36.266666 108.8 4.266667 12.8 8.533333 23.466667 14.933333 38.4l23.466667 40.533334C315.733333 806.4 192 674.133333 192 512c0-170.666667 138.666667-307.2 307.2-307.2 170.666667 0 307.2 138.666667 307.2 307.2 0 32-4.266667 66.133333-12.8 91.733333-8.533333 27.733333-17.066667 34.133333-17.066667 34.133334h-2.133333z m-285.866667 181.333333l4.266667-2.133333-4.266667 2.133333z" fill="#297AFF" /><path d="M529.066667 232.533333c-36.266667 0-66.133333 29.866667-66.133334 66.133334s29.866667 66.133333 66.133334 66.133333c36.266667 0 66.133333-29.866667 66.133333-66.133333s-29.866667-66.133333-66.133333-66.133334z" fill="#297AFF" /></svg>