<?xml version="1.0" standalone="no"?><!DOCTYPE svg PUBLIC "-//W3C//DTD SVG 1.1//EN" "http://www.w3.org/Graphics/SVG/1.1/DTD/svg11.dtd"><svg class="icon" width="200px" height="200.00px" viewBox="0 0 1024 1024" version="1.1" xmlns="http://www.w3.org/2000/svg"><path d="M772.7 294.3H251.3c-55.1 0-99.8 44.7-99.8 99.8v320.7c0 55.1 44.7 99.8 99.8 99.8h521.4c55.1 0 99.8-44.7 99.8-99.8V394c0-55.1-44.7-99.7-99.8-99.7z" fill="#FFFFFF" /><path d="M772.7 822.5H251.3c-59.4 0-107.8-48.3-107.8-107.8V394c0-59.4 48.3-107.8 107.8-107.8h521.4c59.4 0 107.8 48.3 107.8 107.8v320.7c0 59.4-48.4 107.8-107.8 107.8zM251.3 302.3c-50.6 0-91.8 41.2-91.8 91.8v320.7c0 50.6 41.2 91.8 91.8 91.8h521.4c50.6 0 91.8-41.2 91.8-91.8V394c0-50.6-41.2-91.8-91.8-91.8H251.3z" fill="#108EE9" /><path d="M387.7 294.3h-67.1c-28.4 0-51.4-23-51.4-51.4V233c0-28.4 23-51.4 51.4-51.4h67.1c28.4 0 51.4 23 51.4 51.4v9.9c0 28.4-23.1 51.4-51.4 51.4z" fill="#FFFFFF" /><path d="M387.7 302.3h-67.1c-32.8 0-59.4-26.7-59.4-59.4V233c0-32.8 26.7-59.4 59.4-59.4h67.1c32.8 0 59.4 26.7 59.4 59.4v9.9c0 32.7-26.7 59.4-59.4 59.4z m-67.2-112.8c-23.9 0-43.4 19.5-43.4 43.4v9.9c0 23.9 19.5 43.4 43.4 43.4h67.1c23.9 0 43.4-19.5 43.4-43.4v-9.9c0-23.9-19.5-43.4-43.4-43.4h-67.1z" fill="#108EE9" /><path d="M384.2 260.5H324c-3.1 0-5.7-2.5-5.7-5.7V221c0-3.1 2.5-5.7 5.7-5.7h60.2c3.1 0 5.7 2.5 5.7 5.7v33.9c0 3.1-2.5 5.6-5.7 5.6z" fill="#FFFFFF" /><path d="M384.2 268.5H324c-7.5 0-13.7-6.1-13.7-13.7V221c0-7.5 6.1-13.7 13.7-13.7h60.2c7.5 0 13.7 6.1 13.7 13.7v33.9c0 7.5-6.1 13.6-13.7 13.6z m-57.9-16h55.6v-29.3h-55.6v29.3z" fill="#108EE9" /><path d="M866.8 679.5H157.2c-3.1 0-5.7-2.5-5.7-5.7v-239c0-3.1 2.5-5.7 5.7-5.7h709.5c3.1 0 5.7 2.5 5.7 5.7v239c0.1 3.2-2.5 5.7-5.6 5.7z" fill="#FFFFFF" /><path d="M866.8 687.5H157.2c-7.5 0-13.7-6.1-13.7-13.7v-239c0-7.5 6.1-13.7 13.7-13.7h709.5c7.5 0 13.7 6.1 13.7 13.7v239c0.1 7.6-6.1 13.7-13.6 13.7z m-707.3-16h704.9V437.2H159.5v234.3z" fill="#108EE9" /><path d="M518.3 699.8h-12.6c-76.8 0-139.1-62.3-139.1-139.1v-12.6c0-76.8 62.3-139.1 139.1-139.1h12.6c76.8 0 139.1 62.3 139.1 139.1v12.6c0 76.8-62.3 139.1-139.1 139.1z" fill="#FFFFFF" /><path d="M518.3 707.8h-12.6c-81.1 0-147.1-66-147.1-147.1v-12.6c0-81.1 66-147.1 147.1-147.1h12.6c81.1 0 147.1 66 147.1 147.1v12.6c0 81.1-66 147.1-147.1 147.1zM505.7 417c-72.3 0-131.1 58.8-131.1 131.1v12.6c0 72.3 58.8 131.1 131.1 131.1h12.6c72.3 0 131.1-58.8 131.1-131.1v-12.6c0-72.3-58.8-131.1-131.1-131.1h-12.6z" fill="#108EE9" /><path d="M512 623.3c-38.1 0-68.9-30.9-68.9-68.9 0-38.1 30.9-68.9 68.9-68.9 38.1 0 68.9 30.9 68.9 68.9 0 38-30.8 68.9-68.9 68.9z" fill="#FFFFFF" /><path d="M512 631.3c-42.4 0-76.9-34.5-76.9-76.9s34.5-76.9 76.9-76.9c42.4 0 76.9 34.5 76.9 76.9s-34.5 76.9-76.9 76.9z m0-137.8c-33.6 0-60.9 27.3-60.9 60.9 0 33.6 27.3 60.9 60.9 60.9 33.6 0 60.9-27.3 60.9-60.9 0-33.6-27.3-60.9-60.9-60.9z" fill="#108EE9" /></svg>